<svg xmlns="http://www.w3.org/2000/svg" version="1.1" xmlns:xlink="http://www.w3.org/1999/xlink" xmlns:svgjs="http://svgjs.dev/svgjs" width="2000" height="1252" viewBox="0 0 2000 1252"><g transform="matrix(1,0,0,1,-1.2121212121212466,92.08851352231977)"><svg viewBox="0 0 396 248" data-background-color="#ffffff" preserveAspectRatio="xMidYMid meet" height="1252" width="2000" xmlns="http://www.w3.org/2000/svg" xmlns:xlink="http://www.w3.org/1999/xlink"><g id="tight-bounds" transform="matrix(1,0,0,1,0.2400000000000091,0.4000000000000057)"><svg viewBox="0 0 395.52 247.2" height="247.2" width="395.52"><g><svg></svg></g><g><svg viewBox="0 0 395.52 247.2" height="247.2" width="395.52"><g transform="matrix(1,0,0,1,95.98009711358857,47.215199999999996)"><svg viewBox="0 0 203.55980577282284 152.7696" height="152.7696" width="203.55980577282284"><g><svg viewBox="0 0 203.55980577282284 152.7696" height="152.7696" width="203.55980577282284"><g><svg viewBox="0 0 244.43135999999998 183.4432930061356" height="152.7696" width="203.55980577282284"><g transform="matrix(1,0,0,1,0,132.03471275438903)"><svg viewBox="0 0 244.43135999999998 51.40858025174657" height="51.40858025174657" width="244.43135999999998"><g id="textblocktransform"><svg viewBox="0 0 244.43135999999998 51.40858025174657" height="51.40858025174657" width="244.43135999999998" id="textblock"><g><svg viewBox="0 0 244.43135999999998 29.620100461126" height="29.620100461126" width="244.43135999999998"><g transform="matrix(1,0,0,1,0,0)"><svg width="244.43135999999998" viewBox="1.68 -39.25 323.92 39.55" height="29.620100461126" data-palette-color="#00c0ff"><g class="wordmark-text-0" data-fill-palette-color="primary" id="text-0"><path d="M13.93 0.3L13.93 0.3Q20.1 0.3 23.14-2.2 26.18-4.7 26.18-9.88L26.18-9.88 26.18-33.75 21.1-33.75 21.1-10.6Q21.1-6.73 19.43-4.98 17.75-3.23 13.93-3.23L13.93-3.23Q10.08-3.23 8.43-4.95 6.78-6.68 6.78-10.4L6.78-10.4 6.78-15.23 1.68-15.23 1.68-9.83Q1.68-4.58 4.71-2.14 7.75 0.3 13.93 0.3ZM41.8 0.28L41.8 0.28Q43.97 0.28 45.69-0.11 47.4-0.5 48.65-1.11 49.9-1.73 50.7-2.43 51.5-3.13 51.82-3.75L51.82-3.75 52.25 0 56.47 0 56.47-18.85Q56.47-22.85 55.03-25.28 53.6-27.7 50.85-28.8 48.1-29.9 44.15-29.9L44.15-29.9Q41.8-29.9 39.75-29.41 37.7-28.93 36.09-27.88 34.47-26.83 33.38-25.13 32.3-23.43 31.9-20.98L31.9-20.98 36.85-19.65Q37.22-22.13 38.21-23.61 39.2-25.1 40.72-25.78 42.25-26.45 44.17-26.45L44.17-26.45Q46.4-26.45 48.02-25.7 49.65-24.95 50.52-23.34 51.4-21.73 51.4-19.1L51.4-19.1 51.4-17.43 41.72-17.43Q39.4-17.43 37.52-17 35.65-16.57 34.34-15.59 33.02-14.6 32.32-12.91 31.62-11.23 31.62-8.68L31.62-8.68Q31.62-6.03 32.34-4.29 33.05-2.55 34.41-1.55 35.77-0.55 37.63-0.14 39.5 0.28 41.8 0.28ZM42.9-3.05L42.9-3.05Q41.62-3.05 40.5-3.31 39.37-3.58 38.52-4.2 37.67-4.83 37.21-5.95 36.75-7.08 36.75-8.88L36.75-8.88Q36.75-10.63 37.22-11.75 37.7-12.88 38.53-13.49 39.37-14.1 40.5-14.34 41.62-14.58 42.9-14.58L42.9-14.58 51.32-14.58 51.32-6.85Q50.9-5.93 49.77-5.05 48.65-4.17 46.91-3.61 45.17-3.05 42.9-3.05ZM74.07 0.2L74.07 0.2Q79.92 0.2 82.97-1.8 86.02-3.8 86.02-7.9L86.02-7.9Q86.02-12.35 82.96-14.04 79.9-15.73 75.37-16.65L75.37-16.65Q71.55-17.53 69.06-18.48 66.57-19.43 66.57-22.03L66.57-22.03Q66.57-24.1 68.21-25.33 69.84-26.55 73.22-26.55L73.22-26.55Q76.72-26.55 78.76-24.85 80.8-23.15 81.22-19.88L81.22-19.88 85.7-21.4Q84.97-25.95 81.83-27.91 78.7-29.88 73.27-29.88L73.27-29.88Q67.82-29.88 64.7-27.86 61.57-25.85 61.57-22L61.57-22Q61.57-17.78 64.41-15.96 67.25-14.15 71.77-13.18L71.77-13.18Q75.75-12.3 78.37-11.34 81-10.38 81-7.55L81-7.55Q81-5.58 79.28-4.36 77.57-3.15 74.15-3.15L74.15-3.15Q70.52-3.15 68.38-4.78 66.25-6.4 65.82-10.15L65.82-10.15 61.35-8.63Q62.12-3.65 65.42-1.73 68.72 0.2 74.07 0.2ZM90.97-29.63L90.97 0 96.04 0 96.04-24.7 94.94-29.63 90.97-29.63ZM107.54-17.78L107.54 0 112.59 0 112.59-18.13Q112.59-23.18 110.79-26.54 108.99-29.9 103.94-29.9L103.94-29.9Q99.49-29.9 96.41-26.61 93.32-23.33 93.32-19L93.32-19 95.99-17.65Q95.99-21.75 97.74-24.05 99.49-26.35 102.32-26.35L102.32-26.35Q105.12-26.35 106.33-24.24 107.54-22.13 107.54-17.78L107.54-17.78ZM124.04-17.78L124.04 0 129.09 0 129.09-18.13Q129.09-23.18 127.32-26.54 125.54-29.9 120.52-29.9L120.52-29.9Q116.04-29.9 112.96-26.59 109.87-23.28 109.87-19L109.87-19 112.57-17.65Q112.57-21.75 114.32-24.05 116.07-26.35 118.87-26.35L118.87-26.35Q121.69-26.35 122.87-24.24 124.04-22.13 124.04-17.78L124.04-17.78ZM135.29-29.65L135.29 0 140.37 0 140.37-29.65 135.29-29.65ZM140.37-37.75L135.29-37.75 135.29-33.27 140.37-33.27 140.37-37.75ZM146.79-29.63L146.79 0 151.84 0 151.84-23.9 150.76-29.63 146.79-29.63ZM165.36-16.93L165.36 0 170.41 0 170.41-16.95Q170.41-23 168.28-26.46 166.14-29.93 160.99-29.93L160.99-29.93Q155.81-29.93 152.53-26.7 149.24-23.48 149.24-19.83L149.24-19.83 151.69-18.28Q151.69-21.78 153.86-24.08 156.04-26.38 159.16-26.38L159.16-26.38Q162.29-26.38 163.83-24.23 165.36-22.08 165.36-16.93L165.36-16.93ZM188.01 0.25L188.01 0.25 188.01-3.1Q184.21-3.1 182.09-5.88L182.09-5.88Q179.94-8.6 179.94-14.88L179.94-14.88Q179.94-21.5 182.16-24.05L182.16-24.05Q184.36-26.58 187.94-26.58L187.94-26.58Q191.61-26.58 193.66-24.18L193.66-24.18Q195.44-21.93 195.64-16.48L195.64-16.48 179.39-16.48 179.39-13.33 200.64-13.33Q200.74-14.08 200.74-14.95L200.74-14.95Q200.74-22.38 197.79-26.15L197.79-26.15Q194.81-29.93 187.94-29.93L187.94-29.93Q181.26-29.93 178.16-26.15L178.16-26.15Q175.04-22.4 175.04-14.88L175.04-14.88Q175.04-7.78 178.09-3.75L178.09-3.75Q181.11 0.25 188.01 0.25ZM188.01-3.1L188.01-3.1 188.01 0.25Q191.76 0.25 194.21-0.73L194.21-0.73Q196.66-1.7 198.21-3.85L198.21-3.85Q199.74-5.98 200.16-9.03L200.16-9.03 195.61-10.25Q195.19-8.05 194.34-6.3L194.34-6.3Q193.44-4.55 191.81-3.83L191.81-3.83Q190.19-3.1 188.01-3.1Z" fill="#00c0ff" data-fill-palette-color="primary"></path><path d="M226.11-33.83L214.81 0 220.09 0 223.06-9.38 236.49-9.38 239.44 0 244.74 0 233.44-33.83 226.11-33.83ZM235.61-12.83L223.96-12.83 229.76-30.78 229.81-30.78 235.61-12.83ZM249.49-39.25L249.49 0 254.56 0 254.56-39.25 249.49-39.25ZM261.08-39.25L261.08 0 266.16 0 266.16-39.25 261.08-39.25ZM284.18 0.25L284.18 0.25 284.18-3.1Q280.38-3.1 278.26-5.88L278.26-5.88Q276.11-8.6 276.11-14.88L276.11-14.88Q276.11-21.5 278.33-24.05L278.33-24.05Q280.53-26.58 284.11-26.58L284.11-26.58Q287.78-26.58 289.83-24.18L289.83-24.18Q291.61-21.93 291.81-16.48L291.81-16.48 275.56-16.48 275.56-13.33 296.81-13.33Q296.91-14.08 296.91-14.95L296.91-14.95Q296.91-22.38 293.96-26.15L293.96-26.15Q290.98-29.93 284.11-29.93L284.11-29.93Q277.43-29.93 274.33-26.15L274.33-26.15Q271.21-22.4 271.21-14.88L271.21-14.88Q271.21-7.78 274.26-3.75L274.26-3.75Q277.28 0.25 284.18 0.25ZM284.18-3.1L284.18-3.1 284.18 0.25Q287.93 0.25 290.38-0.73L290.38-0.73Q292.83-1.7 294.38-3.85L294.38-3.85Q295.91-5.98 296.33-9.03L296.33-9.03 291.78-10.25Q291.36-8.05 290.51-6.3L290.51-6.3Q289.61-4.55 287.98-3.83L287.98-3.83Q286.36-3.1 284.18-3.1ZM301.98-29.63L301.98 0 307.03 0 307.03-23.9 305.95-29.63 301.98-29.63ZM320.55-16.93L320.55 0 325.6 0 325.6-16.95Q325.6-23 323.47-26.46 321.33-29.93 316.18-29.93L316.18-29.93Q311-29.93 307.72-26.7 304.43-23.48 304.43-19.83L304.43-19.83 306.88-18.28Q306.88-21.78 309.05-24.08 311.23-26.38 314.35-26.38L314.35-26.38Q317.48-26.38 319.02-24.23 320.55-22.08 320.55-16.93L320.55-16.93Z" fill="#0c69da" data-fill-palette-color="secondary"></path></g></svg></g></svg></g><g transform="matrix(1,0,0,1,0,36.61269529758678)"><svg viewBox="0 0 244.43135999999998 14.795884954159785" height="14.795884954159785" width="244.43135999999998"><g transform="matrix(1,0,0,1,0,0)"><svg width="244.43135999999998" viewBox="2.5 -38.55 877.97 53.15" height="14.795884954159785" data-palette-color="#0c69da"><path d="M22.65-16.3L31.7-1.3Q31.9-0.95 33.05-0.95L33.05-0.95 33.05 0 22.9 0 22.9-0.95Q23.6-0.95 23.85-1.2 24.1-1.45 23.9-1.7L23.9-1.7 15.5-15.85 10.35-15.85 10.35-1.5Q10.35-1.25 10.75-1.1 11.15-0.95 11.5-0.95L11.5-0.95 11.5 0 2.5 0 2.5-0.95Q2.85-0.95 3.25-1.1 3.65-1.25 3.65-1.5L3.65-1.5 3.65-36Q3.65-36.25 3.28-36.4 2.9-36.55 2.55-36.55L2.55-36.55 2.55-37.5 17.8-37.5Q24.4-37.5 27.78-34.52 31.15-31.55 31.15-26.85L31.15-26.85Q31.15-22.5 28.78-19.85 26.4-17.2 22.65-16.3L22.65-16.3ZM18.7-31.7L10.35-31.7 10.35-21.9 18.55-21.9Q21.65-21.9 23.2-23.35 24.75-24.8 24.75-26.85L24.75-26.85Q24.75-28.85 23-30.28 21.25-31.7 18.7-31.7L18.7-31.7ZM48-24.05Q51.85-24.05 54.65-22.38 57.45-20.7 58.9-17.85 60.35-15 60.35-11.55L60.35-11.55Q60.35-10.5 60.2-9.45L60.2-9.45 41.9-9.45Q42.1-7.05 44-5.7 45.9-4.35 48.55-4.35L48.55-4.35Q50.35-4.35 51.57-4.85 52.8-5.35 53.75-6.35L53.75-6.35Q53.85-6.55 53.85-6.6L53.85-6.6Q53.85-6.8 53.7-7.03 53.55-7.25 53.4-7.35L53.4-7.35 54-8.1 59.55-3.75 59-3Q58.25-3.45 57.95-3.1L57.95-3.1Q54.45 1.1 48.55 1.1L48.55 1.1Q44.75 1.1 41.85-0.58 38.95-2.25 37.37-5.08 35.8-7.9 35.8-11.35L35.8-11.35Q35.8-15 37.35-17.9 38.9-20.8 41.67-22.43 44.45-24.05 48-24.05L48-24.05ZM41.95-14.1L54.35-14.1Q54.15-16.15 52.27-17.57 50.4-19 48.05-19L48.05-19Q45.7-19 44-17.57 42.3-16.15 41.95-14.1L41.95-14.1ZM91.2-23L91.2-22.05Q90.85-22.05 90.47-21.9 90.1-21.75 90.1-21.5L90.1-21.5 90.1-1.5Q90.1-1.25 90.47-1.1 90.85-0.95 91.2-0.95L91.2-0.95 91.2 0 83.8 0 83.8-2.75Q80.65 0.65 75.85 0.65L75.85 0.65Q72.2 0.65 69.42-0.83 66.65-2.3 65.12-5.05 63.6-7.8 63.6-11.45L63.6-11.45Q63.6-15 65.27-17.78 66.95-20.55 69.75-22.08 72.55-23.6 75.85-23.6L75.85-23.6Q80.65-23.6 83.8-19.9L83.8-19.9 83.8-23 91.2-23ZM76.6-4.65Q78.65-4.65 80.27-5.58 81.9-6.5 82.8-8.03 83.7-9.55 83.7-11.3L83.7-11.3Q83.7-14.3 81.72-16.25 79.75-18.2 76.6-18.2L76.6-18.2Q73.55-18.2 71.57-16.3 69.6-14.4 69.6-11.45L69.6-11.45Q69.6-8.35 71.62-6.5 73.65-4.65 76.6-4.65L76.6-4.65ZM121.24-36L121.24-1.5Q121.24-1.25 121.62-1.1 121.99-0.95 122.34-0.95L122.34-0.95 122.34 0 115.19 0 115.19-1.75Q112.19 0.7 108.04 0.7L108.04 0.7Q104.34 0.7 101.44-0.8 98.54-2.3 96.89-5.05 95.24-7.8 95.24-11.4L95.24-11.4Q95.24-15.05 96.92-17.88 98.59-20.7 101.52-22.28 104.44-23.85 108.04-23.85L108.04-23.85Q112.19-23.85 115.19-21.5L115.19-21.5 115.19-36Q115.19-36.25 114.84-36.4 114.49-36.55 114.14-36.55L114.14-36.55 114.14-37.5 122.29-37.5 122.29-36.55Q121.94-36.55 121.59-36.4 121.24-36.25 121.24-36L121.24-36ZM108.34-4.65Q110.29-4.65 111.92-5.55 113.54-6.45 114.47-7.98 115.39-9.5 115.39-11.2L115.39-11.2Q115.39-14.25 113.42-16.23 111.44-18.2 108.34-18.2L108.34-18.2Q105.24-18.2 103.27-16.28 101.29-14.35 101.29-11.3L101.29-11.3Q101.29-8.25 103.32-6.45 105.34-4.65 108.34-4.65L108.34-4.65ZM154.44-23L154.44-22.05Q153.39-22.05 153.14-21.65L153.14-21.65 135.64 12.8Q135.59 12.85 135.59 12.95L135.59 12.95Q135.59 13.25 135.94 13.45 136.29 13.65 136.84 13.65L136.84 13.65 136.84 14.6 127.44 14.6 127.44 13.65Q128.49 13.65 128.74 13.25L128.74 13.25 136.89-2.8 126.64-21.7Q126.44-22.05 125.34-22.05L125.34-22.05 125.34-23 134.59-23 134.59-22.05Q133.99-22.05 133.87-21.8 133.74-21.55 133.94-21.25L133.94-21.25 140.29-9.5 146.24-21.2Q146.29-21.25 146.29-21.35L146.29-21.35Q146.29-21.65 145.94-21.85 145.59-22.05 145.04-22.05L145.04-22.05 145.04-23 154.44-23ZM183.69-24L184.64-24 184.64-16.4 183.69-16.4Q183.69-16.75 183.54-17.07 183.39-17.4 183.14-17.4L183.14-17.4 179.89-17.4 179.89-1.5Q179.89-1.25 180.24-1.1 180.59-0.95 180.94-0.95L180.94-0.95 180.94 0 172.79 0 172.79-0.95Q173.14-0.95 173.49-1.1 173.84-1.25 173.84-1.5L173.84-1.5 173.84-17.4 171.44-17.4Q171.19-17.4 171.04-17.07 170.89-16.75 170.89-16.4L170.89-16.4 169.94-16.4 169.94-24 170.89-24Q170.89-23.65 171.04-23.33 171.19-23 171.44-23L171.44-23 173.84-23 173.84-28.85Q173.84-29.1 173.49-29.25 173.14-29.4 172.79-29.4L172.79-29.4 172.79-30.35 180.94-30.35 180.94-29.4Q180.59-29.4 180.24-29.25 179.89-29.1 179.89-28.85L179.89-28.85 179.89-23 183.14-23Q183.39-23 183.54-23.33 183.69-23.65 183.69-24L183.69-24ZM199.88 0.6Q196.18 0.6 193.36-0.98 190.53-2.55 188.96-5.3 187.38-8.05 187.38-11.5L187.38-11.5Q187.38-14.9 188.96-17.7 190.53-20.5 193.38-22.13 196.23-23.75 199.88-23.75L199.88-23.75Q203.38-23.75 206.23-22.18 209.08-20.6 210.73-17.82 212.38-15.05 212.38-11.5L212.38-11.5Q212.38-8.4 210.91-5.63 209.43-2.85 206.58-1.13 203.73 0.6 199.88 0.6L199.88 0.6ZM199.88-5.15Q202.83-5.15 204.66-6.88 206.48-8.6 206.48-11.35L206.48-11.35Q206.48-14.2 204.66-16.05 202.83-17.9 199.88-17.9L199.88-17.9Q197.13-17.9 195.28-16.07 193.43-14.25 193.43-11.5L193.43-11.5Q193.43-8.6 195.28-6.88 197.13-5.15 199.88-5.15L199.88-5.15ZM249.18 0.5Q243.83 0.5 239.33-2.02 234.83-4.55 232.23-9.03 229.63-13.5 229.63-19L229.63-19Q229.63-24.8 232.23-29.25 234.83-33.7 239.23-36.13 243.63-38.55 248.88-38.55L248.88-38.55Q253.93-38.55 257.4-36.77 260.88-35 263.98-31.8L263.98-31.8Q264.08-31.7 264.28-31.7L264.28-31.7Q264.58-31.7 265.33-32.15L265.33-32.15 265.93-31.4 259.03-25.95 258.43-26.7Q258.73-26.9 258.9-27.23 259.08-27.55 258.88-27.7L258.88-27.7Q256.78-29.75 254.5-30.83 252.23-31.9 248.98-31.9L248.98-31.9Q245.58-31.9 242.73-30.23 239.88-28.55 238.23-25.6 236.58-22.65 236.58-19L236.58-19Q236.58-15.5 238.33-12.63 240.08-9.75 242.98-8.1 245.88-6.45 249.18-6.45L249.18-6.45Q252.28-6.45 254.48-7.53 256.68-8.6 258.63-10.75L258.63-10.75 258.73-10.95Q258.73-11.2 258.5-11.53 258.28-11.85 258.03-12L258.03-12 258.68-12.7 266.13-6.45 265.53-5.7Q265.23-5.95 264.78-6.15 264.33-6.35 264.18-6.15L264.18-6.15Q261.03-2.75 257.58-1.13 254.13 0.5 249.18 0.5L249.18 0.5ZM280.63 0.6Q276.93 0.6 274.1-0.98 271.28-2.55 269.7-5.3 268.13-8.05 268.13-11.5L268.13-11.5Q268.13-14.9 269.7-17.7 271.28-20.5 274.13-22.13 276.98-23.75 280.63-23.75L280.63-23.75Q284.13-23.75 286.98-22.18 289.83-20.6 291.48-17.82 293.13-15.05 293.13-11.5L293.13-11.5Q293.13-8.4 291.65-5.63 290.18-2.85 287.33-1.13 284.48 0.6 280.63 0.6L280.63 0.6ZM280.63-5.15Q283.58-5.15 285.4-6.88 287.23-8.6 287.23-11.35L287.23-11.35Q287.23-14.2 285.4-16.05 283.58-17.9 280.63-17.9L280.63-17.9Q277.88-17.9 276.03-16.07 274.18-14.25 274.18-11.5L274.18-11.5Q274.18-8.6 276.03-6.88 277.88-5.15 280.63-5.15L280.63-5.15ZM322.62-36L322.62-1.5Q322.62-1.25 323-1.1 323.37-0.95 323.72-0.95L323.72-0.95 323.72 0 316.57 0 316.57-1.75Q313.57 0.7 309.42 0.7L309.42 0.7Q305.72 0.7 302.82-0.8 299.92-2.3 298.27-5.05 296.62-7.8 296.62-11.4L296.62-11.4Q296.62-15.05 298.3-17.88 299.97-20.7 302.9-22.28 305.82-23.85 309.42-23.85L309.42-23.85Q313.57-23.85 316.57-21.5L316.57-21.5 316.57-36Q316.57-36.25 316.22-36.4 315.87-36.55 315.52-36.55L315.52-36.55 315.52-37.5 323.67-37.5 323.67-36.55Q323.32-36.55 322.97-36.4 322.62-36.25 322.62-36L322.62-36ZM309.72-4.65Q311.67-4.65 313.3-5.55 314.92-6.45 315.85-7.98 316.77-9.5 316.77-11.2L316.77-11.2Q316.77-14.25 314.8-16.23 312.82-18.2 309.72-18.2L309.72-18.2Q306.62-18.2 304.65-16.28 302.67-14.35 302.67-11.3L302.67-11.3Q302.67-8.25 304.7-6.45 306.72-4.65 309.72-4.65L309.72-4.65ZM340.17-24.05Q344.02-24.05 346.82-22.38 349.62-20.7 351.07-17.85 352.52-15 352.52-11.55L352.52-11.55Q352.52-10.5 352.37-9.45L352.37-9.45 334.07-9.45Q334.27-7.05 336.17-5.7 338.07-4.35 340.72-4.35L340.72-4.35Q342.52-4.35 343.75-4.85 344.97-5.35 345.92-6.35L345.92-6.35Q346.02-6.55 346.02-6.6L346.02-6.6Q346.02-6.8 345.87-7.03 345.72-7.25 345.57-7.35L345.57-7.35 346.17-8.1 351.72-3.75 351.17-3Q350.42-3.45 350.12-3.1L350.12-3.1Q346.62 1.1 340.72 1.1L340.72 1.1Q336.92 1.1 334.02-0.58 331.12-2.25 329.55-5.08 327.97-7.9 327.97-11.35L327.97-11.35Q327.97-15 329.52-17.9 331.07-20.8 333.85-22.43 336.62-24.05 340.17-24.05L340.17-24.05ZM334.12-14.1L346.52-14.1Q346.32-16.15 344.45-17.57 342.57-19 340.22-19L340.22-19Q337.87-19 336.17-17.57 334.47-16.15 334.12-14.1L334.12-14.1ZM356.52-3.75Q356.52-5.5 357.82-6.73 359.12-7.95 360.97-7.95L360.97-7.95Q363.12-7.95 364.39-6.55 365.67-5.15 365.67-2.3L365.67-2.3Q365.67 2.05 363.09 3.85 360.52 5.65 356.77 5.65L356.77 5.65 356.77 4.35Q358.92 4 360.49 2.98 362.07 1.95 362.07 0.45L362.07 0.45Q361.62 0.55 360.82 0.55L360.82 0.55Q358.97 0.55 357.74-0.68 356.52-1.9 356.52-3.75L356.52-3.75ZM405.71 0.5Q400.36 0.5 395.86-2.02 391.36-4.55 388.76-9.03 386.16-13.5 386.16-19L386.16-19Q386.16-24.8 388.76-29.25 391.36-33.7 395.76-36.13 400.16-38.55 405.41-38.55L405.41-38.55Q410.46-38.55 413.94-36.77 417.41-35 420.51-31.8L420.51-31.8Q420.61-31.7 420.81-31.7L420.81-31.7Q421.11-31.7 421.86-32.15L421.86-32.15 422.46-31.4 415.56-25.95 414.96-26.7Q415.26-26.9 415.44-27.23 415.61-27.55 415.41-27.7L415.41-27.7Q413.31-29.75 411.04-30.83 408.76-31.9 405.51-31.9L405.51-31.9Q402.11-31.9 399.26-30.23 396.41-28.55 394.76-25.6 393.11-22.65 393.11-19L393.11-19Q393.11-15.5 394.86-12.63 396.61-9.75 399.51-8.1 402.41-6.45 405.71-6.45L405.71-6.45Q408.81-6.45 411.01-7.53 413.21-8.6 415.16-10.75L415.16-10.75 415.26-10.95Q415.26-11.2 415.04-11.53 414.81-11.85 414.56-12L414.56-12 415.21-12.7 422.66-6.45 422.06-5.7Q421.76-5.95 421.31-6.15 420.86-6.35 420.71-6.15L420.71-6.15Q417.56-2.75 414.11-1.13 410.66 0.5 405.71 0.5L405.71 0.5ZM439.66-24.5L440.61-24.5 440.61-16.45 439.66-16.45Q439.66-16.8 439.51-17.25 439.36-17.7 439.11-17.75L439.11-17.75 438.76-17.75Q437.21-17.75 435.64-16.88 434.06-16 433.04-14.58 432.01-13.15 432.01-11.55L432.01-11.55 432.01-1.5Q432.01-1.25 432.39-1.1 432.76-0.95 433.11-0.95L433.11-0.95 433.11 0 424.71 0 424.71-0.95Q425.06-0.95 425.44-1.1 425.81-1.25 425.81-1.5L425.81-1.5 425.81-21.5Q425.81-21.75 425.44-21.9 425.06-22.05 424.71-22.05L424.71-22.05 424.71-23 432.01-23 432.01-20.85Q433.36-22.1 435.26-22.85 437.16-23.6 439.06-23.6L439.06-23.6 439.11-23.6 439.16-23.6Q439.41-23.6 439.54-23.9 439.66-24.2 439.66-24.5L439.66-24.5ZM455.31-24.05Q459.16-24.05 461.96-22.38 464.76-20.7 466.21-17.85 467.66-15 467.66-11.55L467.66-11.55Q467.66-10.5 467.51-9.45L467.51-9.45 449.21-9.45Q449.41-7.05 451.31-5.7 453.21-4.35 455.86-4.35L455.86-4.35Q457.66-4.35 458.88-4.85 460.11-5.35 461.06-6.35L461.06-6.35Q461.16-6.55 461.16-6.6L461.16-6.6Q461.16-6.8 461.01-7.03 460.86-7.25 460.71-7.35L460.71-7.35 461.31-8.1 466.86-3.75 466.31-3Q465.56-3.45 465.26-3.1L465.26-3.1Q461.76 1.1 455.86 1.1L455.86 1.1Q452.06 1.1 449.16-0.58 446.26-2.25 444.68-5.08 443.11-7.9 443.11-11.35L443.11-11.35Q443.11-15 444.66-17.9 446.21-20.8 448.98-22.43 451.76-24.05 455.31-24.05L455.31-24.05ZM449.26-14.1L461.66-14.1Q461.46-16.15 459.58-17.57 457.71-19 455.36-19L455.36-19Q453.01-19 451.31-17.57 449.61-16.15 449.26-14.1L449.26-14.1ZM498.51-23L498.51-22.05Q498.16-22.05 497.78-21.9 497.41-21.75 497.41-21.5L497.41-21.5 497.41-1.5Q497.41-1.25 497.78-1.1 498.16-0.95 498.51-0.95L498.51-0.95 498.51 0 491.11 0 491.11-2.75Q487.96 0.65 483.16 0.65L483.16 0.65Q479.51 0.65 476.73-0.83 473.96-2.3 472.43-5.05 470.91-7.8 470.91-11.45L470.91-11.45Q470.91-15 472.58-17.78 474.26-20.55 477.06-22.08 479.86-23.6 483.16-23.6L483.16-23.6Q487.96-23.6 491.11-19.9L491.11-19.9 491.11-23 498.51-23ZM483.91-4.65Q485.96-4.65 487.58-5.58 489.21-6.5 490.11-8.03 491.01-9.55 491.01-11.3L491.01-11.3Q491.01-14.3 489.03-16.25 487.06-18.2 483.91-18.2L483.91-18.2Q480.86-18.2 478.88-16.3 476.91-14.4 476.91-11.45L476.91-11.45Q476.91-8.35 478.93-6.5 480.96-4.65 483.91-4.65L483.91-4.65ZM515.55-24L516.5-24 516.5-16.4 515.55-16.4Q515.55-16.75 515.4-17.07 515.25-17.4 515-17.4L515-17.4 511.75-17.4 511.75-1.5Q511.75-1.25 512.1-1.1 512.45-0.95 512.8-0.95L512.8-0.95 512.8 0 504.65 0 504.65-0.95Q505-0.95 505.35-1.1 505.7-1.25 505.7-1.5L505.7-1.5 505.7-17.4 503.3-17.4Q503.05-17.4 502.9-17.07 502.75-16.75 502.75-16.4L502.75-16.4 501.8-16.4 501.8-24 502.75-24Q502.75-23.65 502.9-23.33 503.05-23 503.3-23L503.3-23 505.7-23 505.7-28.85Q505.7-29.1 505.35-29.25 505-29.4 504.65-29.4L504.65-29.4 504.65-30.35 512.8-30.35 512.8-29.4Q512.45-29.4 512.1-29.25 511.75-29.1 511.75-28.85L511.75-28.85 511.75-23 515-23Q515.25-23 515.4-23.33 515.55-23.65 515.55-24L515.55-24ZM531.45-24.05Q535.3-24.05 538.1-22.38 540.9-20.7 542.35-17.85 543.8-15 543.8-11.55L543.8-11.55Q543.8-10.5 543.65-9.45L543.65-9.45 525.35-9.45Q525.55-7.05 527.45-5.7 529.35-4.35 532-4.35L532-4.35Q533.8-4.35 535.02-4.85 536.25-5.35 537.2-6.35L537.2-6.35Q537.3-6.55 537.3-6.6L537.3-6.6Q537.3-6.8 537.15-7.03 537-7.25 536.85-7.35L536.85-7.35 537.45-8.1 543-3.75 542.45-3Q541.7-3.45 541.4-3.1L541.4-3.1Q537.9 1.1 532 1.1L532 1.1Q528.2 1.1 525.3-0.58 522.4-2.25 520.83-5.08 519.25-7.9 519.25-11.35L519.25-11.35Q519.25-15 520.8-17.9 522.35-20.8 525.13-22.43 527.9-24.05 531.45-24.05L531.45-24.05ZM525.4-14.1L537.8-14.1Q537.6-16.15 535.73-17.57 533.85-19 531.5-19L531.5-19Q529.15-19 527.45-17.57 525.75-16.15 525.4-14.1L525.4-14.1ZM547.8-3.75Q547.8-5.5 549.1-6.73 550.4-7.95 552.25-7.95L552.25-7.95Q554.4-7.95 555.67-6.55 556.95-5.15 556.95-2.3L556.95-2.3Q556.95 2.05 554.37 3.85 551.8 5.65 548.05 5.65L548.05 5.65 548.05 4.35Q550.2 4 551.77 2.98 553.35 1.95 553.35 0.45L553.35 0.45Q552.9 0.55 552.1 0.55L552.1 0.55Q550.25 0.55 549.02-0.68 547.8-1.9 547.8-3.75L547.8-3.75ZM605.29-23L605.29-22.05Q604.94-22.05 604.57-21.9 604.19-21.75 604.19-21.5L604.19-21.5 604.19-1.5Q604.19-1.25 604.57-1.1 604.94-0.95 605.29-0.95L605.29-0.95 605.29 0 597.89 0 597.89-2.75Q594.74 0.65 589.94 0.65L589.94 0.65Q586.29 0.65 583.52-0.83 580.74-2.3 579.22-5.05 577.69-7.8 577.69-11.45L577.69-11.45Q577.69-15 579.37-17.78 581.04-20.55 583.84-22.08 586.64-23.6 589.94-23.6L589.94-23.6Q594.74-23.6 597.89-19.9L597.89-19.9 597.89-23 605.29-23ZM590.69-4.65Q592.74-4.65 594.37-5.58 595.99-6.5 596.89-8.03 597.79-9.55 597.79-11.3L597.79-11.3Q597.79-14.3 595.82-16.25 593.84-18.2 590.69-18.2L590.69-18.2Q587.64-18.2 585.67-16.3 583.69-14.4 583.69-11.45L583.69-11.45Q583.69-8.35 585.72-6.5 587.74-4.65 590.69-4.65L590.69-4.65ZM634.69-13.45L634.69-1.5Q634.69-1.25 635.06-1.1 635.44-0.95 635.84-0.95L635.84-0.95 635.84 0 627.04 0 627.04-0.95Q627.44-0.95 627.81-1.1 628.19-1.25 628.19-1.5L628.19-1.5 628.19-11.9Q628.19-14.45 626.94-16.28 625.69-18.1 623.19-18.1L623.19-18.1Q620.64-18.1 619.06-16.4 617.49-14.7 617.49-11.5L617.49-11.5 617.49-1.5Q617.49-1.25 617.86-1.1 618.24-0.95 618.64-0.95L618.64-0.95 618.64 0 609.89 0 609.89-0.95Q610.29-0.95 610.66-1.1 611.04-1.25 611.04-1.5L611.04-1.5 611.04-21.5Q611.04-21.75 610.66-21.9 610.29-22.05 609.94-22.05L609.94-22.05 609.94-23 617.49-23 617.49-20.95Q618.79-22.15 620.56-22.83 622.34-23.5 624.19-23.5L624.19-23.5Q627.39-23.5 629.76-22.15 632.14-20.8 633.41-18.53 634.69-16.25 634.69-13.45L634.69-13.45ZM665.89-36L665.89-1.5Q665.89-1.25 666.26-1.1 666.64-0.95 666.99-0.95L666.99-0.95 666.99 0 659.84 0 659.84-1.75Q656.84 0.7 652.69 0.7L652.69 0.7Q648.99 0.7 646.09-0.8 643.19-2.3 641.54-5.05 639.89-7.8 639.89-11.4L639.89-11.4Q639.89-15.05 641.56-17.88 643.24-20.7 646.16-22.28 649.09-23.85 652.69-23.85L652.69-23.85Q656.84-23.85 659.84-21.5L659.84-21.5 659.84-36Q659.84-36.25 659.49-36.4 659.14-36.55 658.79-36.55L658.79-36.55 658.79-37.5 666.94-37.5 666.94-36.55Q666.59-36.55 666.24-36.4 665.89-36.25 665.89-36L665.89-36ZM652.99-4.65Q654.94-4.65 656.56-5.55 658.19-6.45 659.11-7.98 660.04-9.5 660.04-11.2L660.04-11.2Q660.04-14.25 658.06-16.23 656.09-18.2 652.99-18.2L652.99-18.2Q649.89-18.2 647.91-16.28 645.94-14.35 645.94-11.3L645.94-11.3Q645.94-8.25 647.96-6.45 649.99-4.65 652.99-4.65L652.99-4.65ZM704.53 0.5Q699.18 0.5 694.68-2.02 690.18-4.55 687.58-9.03 684.98-13.5 684.98-19L684.98-19Q684.98-24.8 687.58-29.25 690.18-33.7 694.58-36.13 698.98-38.55 704.23-38.55L704.23-38.55Q709.28-38.55 712.76-36.77 716.23-35 719.33-31.8L719.33-31.8Q719.43-31.7 719.63-31.7L719.63-31.7Q719.93-31.7 720.68-32.15L720.68-32.15 721.28-31.4 714.38-25.95 713.78-26.7Q714.08-26.9 714.26-27.23 714.43-27.55 714.23-27.7L714.23-27.7Q712.13-29.75 709.86-30.83 707.58-31.9 704.33-31.9L704.33-31.9Q700.93-31.9 698.08-30.23 695.23-28.55 693.58-25.6 691.93-22.65 691.93-19L691.93-19Q691.93-15.5 693.68-12.63 695.43-9.75 698.33-8.1 701.23-6.45 704.53-6.45L704.53-6.45Q707.63-6.45 709.83-7.53 712.03-8.6 713.98-10.75L713.98-10.75 714.08-10.95Q714.08-11.2 713.86-11.53 713.63-11.85 713.38-12L713.38-12 714.03-12.7 721.48-6.45 720.88-5.7Q720.58-5.95 720.13-6.15 719.68-6.35 719.53-6.15L719.53-6.15Q716.38-2.75 712.93-1.13 709.48 0.5 704.53 0.5L704.53 0.5ZM735.98 0.6Q732.28 0.6 729.45-0.98 726.63-2.55 725.05-5.3 723.48-8.05 723.48-11.5L723.48-11.5Q723.48-14.9 725.05-17.7 726.63-20.5 729.48-22.13 732.33-23.75 735.98-23.75L735.98-23.75Q739.48-23.75 742.33-22.18 745.18-20.6 746.83-17.82 748.48-15.05 748.48-11.5L748.48-11.5Q748.48-8.4 747-5.63 745.53-2.85 742.68-1.13 739.83 0.6 735.98 0.6L735.98 0.6ZM735.98-5.15Q738.93-5.15 740.75-6.88 742.58-8.6 742.58-11.35L742.58-11.35Q742.58-14.2 740.75-16.05 738.93-17.9 735.98-17.9L735.98-17.9Q733.23-17.9 731.38-16.07 729.53-14.25 729.53-11.5L729.53-11.5Q729.53-8.6 731.38-6.88 733.23-5.15 735.98-5.15L735.98-5.15ZM777.33-13.45L777.33-1.5Q777.33-1.25 777.7-1.1 778.08-0.95 778.48-0.95L778.48-0.95 778.48 0 769.68 0 769.68-0.95Q770.08-0.95 770.45-1.1 770.83-1.25 770.83-1.5L770.83-1.5 770.83-11.9Q770.83-14.45 769.58-16.28 768.33-18.1 765.83-18.1L765.83-18.1Q763.28-18.1 761.7-16.4 760.13-14.7 760.13-11.5L760.13-11.5 760.13-1.5Q760.13-1.25 760.5-1.1 760.88-0.95 761.28-0.95L761.28-0.95 761.28 0 752.53 0 752.53-0.95Q752.93-0.95 753.3-1.1 753.68-1.25 753.68-1.5L753.68-1.5 753.68-21.5Q753.68-21.75 753.3-21.9 752.93-22.05 752.58-22.05L752.58-22.05 752.58-23 760.13-23 760.13-20.95Q761.43-22.15 763.2-22.83 764.98-23.5 766.83-23.5L766.83-23.5Q770.03-23.5 772.4-22.15 774.78-20.8 776.05-18.53 777.33-16.25 777.33-13.45L777.33-13.45ZM807.87-13.45L807.87-1.5Q807.87-1.25 808.25-1.1 808.62-0.95 809.02-0.95L809.02-0.95 809.02 0 800.22 0 800.22-0.95Q800.62-0.95 801-1.1 801.37-1.25 801.37-1.5L801.37-1.5 801.37-11.9Q801.37-14.45 800.12-16.28 798.87-18.1 796.37-18.1L796.37-18.1Q793.82-18.1 792.25-16.4 790.67-14.7 790.67-11.5L790.67-11.5 790.67-1.5Q790.67-1.25 791.05-1.1 791.42-0.95 791.82-0.95L791.82-0.95 791.82 0 783.07 0 783.07-0.95Q783.47-0.95 783.85-1.1 784.22-1.25 784.22-1.5L784.22-1.5 784.22-21.5Q784.22-21.75 783.85-21.9 783.47-22.05 783.12-22.05L783.12-22.05 783.12-23 790.67-23 790.67-20.95Q791.97-22.15 793.75-22.83 795.52-23.5 797.37-23.5L797.37-23.5Q800.57-23.5 802.95-22.15 805.32-20.8 806.6-18.53 807.87-16.25 807.87-13.45L807.87-13.45ZM825.27-24.05Q829.12-24.05 831.92-22.38 834.72-20.7 836.17-17.85 837.62-15 837.62-11.55L837.62-11.55Q837.62-10.5 837.47-9.45L837.47-9.45 819.17-9.45Q819.37-7.05 821.27-5.7 823.17-4.35 825.82-4.35L825.82-4.35Q827.62-4.35 828.85-4.85 830.07-5.35 831.02-6.35L831.02-6.35Q831.12-6.55 831.12-6.6L831.12-6.6Q831.12-6.8 830.97-7.03 830.82-7.25 830.67-7.35L830.67-7.35 831.27-8.1 836.82-3.75 836.27-3Q835.52-3.45 835.22-3.1L835.22-3.1Q831.72 1.1 825.82 1.1L825.82 1.1Q822.02 1.1 819.12-0.58 816.22-2.25 814.65-5.08 813.07-7.9 813.07-11.35L813.07-11.35Q813.07-15 814.62-17.9 816.17-20.8 818.95-22.43 821.72-24.05 825.27-24.05L825.27-24.05ZM819.22-14.1L831.62-14.1Q831.42-16.15 829.55-17.57 827.67-19 825.32-19L825.32-19Q822.97-19 821.27-17.57 819.57-16.15 819.22-14.1L819.22-14.1ZM852.82 1.05Q849.62 1.05 846.87-0.55 844.12-2.15 842.49-4.9 840.87-7.65 840.87-10.9L840.87-10.9Q840.87-14.75 842.49-17.68 844.12-20.6 846.87-22.18 849.62-23.75 852.92-23.75L852.92-23.75Q855.27-23.75 856.94-23.2 858.62-22.65 859.64-21.88 860.67-21.1 862.22-19.7L862.22-19.7Q862.32-19.6 862.47-19.6L862.47-19.6Q862.67-19.6 862.94-19.75 863.22-19.9 863.37-20.05L863.37-20.05 864.02-19.35 858.62-14.35 857.97-15.05Q858.22-15.25 858.39-15.63 858.57-16 858.42-16.2L858.42-16.2Q856.62-18.4 853.47-18.4L853.47-18.4Q850.62-18.4 848.69-16.5 846.77-14.6 846.77-11.55L846.77-11.55Q846.77-8.4 848.62-6.5 850.47-4.6 853.47-4.6L853.47-4.6Q854.97-4.6 855.92-4.98 856.87-5.35 858.07-6.4L858.07-6.4Q858.17-6.5 858.17-6.65L858.17-6.65Q858.17-6.95 857.82-7.3L857.82-7.3 858.42-8.05 863.82-3.55 863.22-2.85Q862.42-3.3 862.12-3L862.12-3Q860.27-0.95 858.24 0.05 856.22 1.05 852.82 1.05L852.82 1.05ZM879.52-24L880.47-24 880.47-16.4 879.52-16.4Q879.52-16.75 879.37-17.07 879.22-17.4 878.97-17.4L878.97-17.4 875.72-17.4 875.72-1.5Q875.72-1.25 876.07-1.1 876.42-0.95 876.77-0.95L876.77-0.95 876.77 0 868.62 0 868.62-0.95Q868.97-0.95 869.32-1.1 869.67-1.25 869.67-1.5L869.67-1.5 869.67-17.4 867.27-17.4Q867.02-17.4 866.87-17.07 866.72-16.75 866.72-16.4L866.72-16.4 865.77-16.4 865.77-24 866.72-24Q866.72-23.65 866.87-23.33 867.02-23 867.27-23L867.27-23 869.67-23 869.67-28.85Q869.67-29.1 869.32-29.25 868.97-29.4 868.62-29.4L868.62-29.4 868.62-30.35 876.77-30.35 876.77-29.4Q876.42-29.4 876.07-29.25 875.72-29.1 875.72-28.85L875.72-28.85 875.72-23 878.97-23Q879.22-23 879.37-23.33 879.52-23.65 879.52-24L879.52-24Z" opacity="1" transform="matrix(1,0,0,1,0,0)" fill="#0c69da" class="slogan-text-1" data-fill-palette-color="secondary" id="text-1"></path></svg></g></svg></g></svg></g></svg></g><g transform="matrix(1,0,0,1,65.7722906315172,0)"><svg viewBox="0 0 112.88677873696558 125.04211791792824" height="125.04211791792824" width="112.88677873696558"><g><svg xmlns="http://www.w3.org/2000/svg" xmlns:xlink="http://www.w3.org/1999/xlink" version="1.1" x="0" y="0" viewBox="4.333039020776829 2 43.333921958446346 48" enable-background="new 0 0 52 52" xml:space="preserve" height="125.04211791792824" width="112.88677873696558" class="icon-icon-0" data-fill-palette-color="accent" id="icon-0"><g fill="#00c0ff" data-fill-palette-color="accent"><path d="M32.6 8.5C31.8 5 29.7 2 26.1 2S20.3 4.9 20.3 8.5 25.7 16.2 26.1 23.7C31.7 20.5 33.8 13.1 32.6 8.5M32.6 8.5" fill="#00c0ff" data-fill-palette-color="accent"></path><path d="M19.4 43.5C20.3 47 22.3 50 25.9 50S31.7 47.1 31.7 43.5 26.3 35.8 25.9 28.3C20.3 31.5 18.2 38.9 19.4 43.5M19.4 43.5" fill="#00c0ff" data-fill-palette-color="accent"></path><path d="M8 22.1C11.1 23.9 17.4 21.2 24 24.7 24.1 18.3 18.7 12.8 14.1 11.5 10.7 10.5 7 10.8 5.2 13.9 3.5 17 4.9 20.3 8 22.1M8 22.1" fill="#00c0ff" data-fill-palette-color="accent"></path><path d="M37.8 40.5C41.3 41.5 44.9 41.2 46.7 38.1S47.1 31.7 44 29.9 34.6 30.8 27.9 27.3C27.9 33.7 33.2 39.2 37.8 40.5M37.8 40.5" fill="#00c0ff" data-fill-palette-color="accent"></path><path d="M13.6 39.6C16.7 37.8 17.6 31 23.9 27 18.4 23.8 11 25.7 7.5 29 4.9 31.5 3.3 34.8 5.1 37.9S10.5 41.4 13.6 39.6M13.6 39.6" fill="#00c0ff" data-fill-palette-color="accent"></path><path d="M28.1 25C33.6 28.3 41 26.4 44.5 23 47.1 20.5 48.7 17.2 46.9 14.1S41.5 10.5 38.4 12.3 34.4 20.9 28.1 25" fill="#00c0ff" data-fill-palette-color="accent"></path></g></svg></g></svg></g><g></g></svg></g></svg></g></svg></g><g><path d="M137.752 41.392A101.78 101.78 0 0 1 257.768 41.392L255.544 41.392A99.555 99.555 0 0 0 139.976 41.392L137.752 41.392M137.752 205.808A101.78 101.78 0 0 0 257.768 205.808L255.544 205.808A99.555 99.555 0 0 1 139.976 205.808L137.752 205.808" fill="#00c0ff" stroke="transparent" data-fill-palette-color="tertiary"></path></g></svg></g><defs></defs></svg><rect width="395.52" height="247.2" fill="none" stroke="none" visibility="hidden"></rect></g></svg></g></svg>